<svg width="25" height="25" viewBox="0 0 25 25" fill="none" xmlns="http://www.w3.org/2000/svg">
<path d="M9.396 5.5C9.396 3.98 10.626 2.75 12.146 2.75C13.666 2.75 14.896 3.98 14.896 5.5C14.896 7.02 13.666 8.25 12.146 8.25C10.626 8.25 9.396 7.02 9.396 5.5ZM13.396 5.5C13.396 4.81 12.836 4.25 12.146 4.25C11.456 4.25 10.896 4.81 10.896 5.5C10.896 6.19 11.456 6.75 12.146 6.75C12.836 6.75 13.396 6.19 13.396 5.5Z" fill="black" fill-opacity="0.5"/>
<path d="M9.396 19.5C9.396 17.98 10.626 16.75 12.146 16.75C13.666 16.75 14.896 17.98 14.896 19.5C14.896 21.02 13.666 22.25 12.146 22.25C10.626 22.25 9.396 21.02 9.396 19.5ZM13.396 19.5C13.396 18.81 12.836 18.25 12.146 18.25C11.456 18.25 10.896 18.81 10.896 19.5C10.896 20.19 11.456 20.75 12.146 20.75C12.836 20.75 13.396 20.19 13.396 19.5Z" fill="black" fill-opacity="0.5"/>
<path d="M9.396 12.5C9.396 10.98 10.626 9.75 12.146 9.75C13.666 9.75 14.896 10.98 14.896 12.5C14.896 14.02 13.666 15.25 12.146 15.25C10.626 15.25 9.396 14.02 9.396 12.5ZM13.396 12.5C13.396 11.81 12.836 11.25 12.146 11.25C11.456 11.25 10.896 11.81 10.896 12.5C10.896 13.19 11.456 13.75 12.146 13.75C12.836 13.75 13.396 13.19 13.396 12.5Z" fill="black" fill-opacity="0.5"/>
</svg>
